<?xml version="1.0" encoding="UTF-8" standalone="no"?>
<svg
   xmlns:dc="http://purl.org/dc/elements/1.1/"
   xmlns:cc="http://creativecommons.org/ns#"
   xmlns:rdf="http://www.w3.org/1999/02/22-rdf-syntax-ns#"
   xmlns:svg="http://www.w3.org/2000/svg"
   xmlns="http://www.w3.org/2000/svg"
   xmlns:sodipodi="http://sodipodi.sourceforge.net/DTD/sodipodi-0.dtd"
   xmlns:inkscape="http://www.inkscape.org/namespaces/inkscape"
   width="90"
   height="105"
   version="1.1"
   id="svg87"
   sodipodi:docname="design.svg"
   inkscape:version="0.92.2 (5c3e80d, 2017-08-06)">
  <metadata
     id="metadata91">
    <rdf:RDF>
      <cc:Work
         rdf:about="">
        <dc:format>image/svg+xml</dc:format>
        <dc:type
           rdf:resource="http://purl.org/dc/dcmitype/StillImage" />
        <dc:title></dc:title>
      </cc:Work>
    </rdf:RDF>
  </metadata>
  <sodipodi:namedview
     pagecolor="#ffffff"
     bordercolor="#666666"
     borderopacity="1"
     objecttolerance="10"
     gridtolerance="10"
     guidetolerance="10"
     inkscape:pageopacity="0"
     inkscape:pageshadow="2"
     inkscape:window-width="2560"
     inkscape:window-height="1440"
     id="namedview89"
     showgrid="false"
     inkscape:snap-text-baseline="false"
     units="px"
     inkscape:zoom="9.3473818"
     inkscape:cx="40.91596"
     inkscape:cy="60.256319"
     inkscape:window-x="0"
     inkscape:window-y="0"
     inkscape:window-maximized="0"
     inkscape:current-layer="svg87" />
  <defs
     id="defs83">
    <linearGradient
       id="a"
       x1="-0.0096369796"
       x2="-0.0096369796"
       y1="96.104179"
       y2="0.80409014"
       gradientTransform="matrix(0.93390259,0,0,1.0707755,0.50849725,0.6164998)"
       gradientUnits="userSpaceOnUse">
      <stop
         offset="0%"
         stop-color="#11BBC9"
         id="stop78" />
      <stop
         offset="100%"
         stop-color="#0BC65A"
         id="stop80" />
    </linearGradient>
  </defs>
  <path
     d="M 44.999497,103.5225 0.49949725,78.011499 v -51.023 L 44.999497,1.4774998 89.500503,26.988499 v 51.023 z M 85.287493,29.403499 44.999497,6.3084997 4.7124972,29.403499 v 46.191 L 44.999497,98.6905 85.287493,75.594499 Z m -48.826995,39.988 v 0.001 l -1.694,1.682 a 6.001,6.001 0 0 1 -4.237,1.74 5.993,5.993 0 0 1 -4.236,-1.74 5.926,5.926 0 0 1 0,-8.413 l 1.249,-1.24 -0.176,0.175 0.244,-0.243 0.361,-0.358 -0.154,0.153 0.17,-0.169 h 0.001 l 8.447,-8.389 -8.157,-8.099 a 1.205,1.205 0 0 1 -0.089,-0.099 l -0.02,-0.027 a 1.174,1.174 0 0 1 -0.122,-0.198 l -0.016,-0.034 a 1.687,1.687 0 0 1 -0.036,-0.09 l -0.008,-0.022 -3.389,-10.254 a 1.185,1.185 0 0 1 0.299,-1.22 1.205,1.205 0 0 1 1.234,-0.274 l 10.167,3.524 0.027,0.01 c 0.024,0.01 0.048,0.019 0.071,0.03 l 0.046,0.021 c 0.024,0.012 0.046,0.025 0.069,0.038 a 0.927,0.927 0 0 1 0.112,0.075 l 0.033,0.023 c 0.032,0.027 0.064,0.055 0.095,0.084 l 8.157,8.1 8.339,-8.281 c 0.032,-0.031 0.065,-0.06 0.099,-0.088 l 0.027,-0.018 c 0.027,-0.021 0.054,-0.04 0.081,-0.058 l 0.032,-0.018 a 1.162,1.162 0 0 1 0.208,-0.097 l 0.022,-0.009 10.167,-3.364 a 1.202,1.202 0 0 1 1.226,0.287 c 0.321,0.319 0.433,0.79 0.289,1.218 l -3.389,10.095 -0.011,0.03 -0.031,0.077 a 1.271,1.271 0 0 1 -0.061,0.116 l -0.024,0.041 a 1.59,1.59 0 0 1 -0.051,0.072 l -0.025,0.033 a 1.113,1.113 0 0 1 -0.086,0.096 l -8.34,8.28 8.302,8.244 0.847,-0.841 a 1.183,1.183 0 0 0 0,-1.682 l -4.877,-4.844 a 1.184,1.184 0 0 1 0,-1.683 1.203,1.203 0 0 1 1.694,0 l 4.878,4.844 a 3.554,3.554 0 0 1 0,5.047 l -0.993,0.986 c 0.465,0.97 0.465,2.106 0,3.076 l 0.993,0.986 a 3.534,3.534 0 0 1 1.053,2.524 c 0,0.954 -0.374,1.85 -1.053,2.524 a 3.596,3.596 0 0 1 -2.542,1.044 c -0.92,0 -1.841,-0.348 -2.541,-1.044 l -0.993,-0.986 a 3.628,3.628 0 0 1 -1.549,0.347 3.596,3.596 0 0 1 -2.542,-1.044 l -9.149,-9.085 z m -8.472,-5.047 a 3.554,3.554 0 0 0 0,5.047 3.615,3.615 0 0 0 5.083,0 l 0.847,-0.841 -5.083,-5.048 z m 2.541,-2.524 5.084,5.047 1.694,-1.682 -5.084,-5.047 z m -2.898,-26.507 2.025,6.127 4.05,-4.021 z m 8.272,3.289 -5.083,5.048 1.694,1.682 5.084,-5.047 z m 3.389,3.365 -5.083,5.048 3.921,3.893 5.083,-5.048 z m -5.374,16.487 1.695,1.684 16.787,-16.669 -1.694,-1.684 z m 28.449,-23.2 -6.055,2.004 4.037,4.009 z m -3.189,8.215 -5.084,-5.048 -1.694,1.682 5.083,5.048 z m -3.389,3.365 -1.695,-1.683 -16.787,16.669 1.695,1.682 11.836,-11.752 h 9.99e-4 z m 5.046,23.254 a 1.205,1.205 0 0 0 1.694,0 1.183,1.183 0 0 0 0,-1.682 l -0.847,-0.842 -0.847,0.842 -0.847001,0.841 z m -5.083,-1.682 a 1.205,1.205 0 0 0 1.694,0 l 3.389,-3.366 a 1.185,1.185 0 0 0 0,-1.682 l -9.149,-9.085 -5.084,5.048 z m -28.21,-6.985 0.275,-0.273 -0.207001,0.205 z"
     id="path85"
     style="fill:url(#a);fill-rule:evenodd"
     inkscape:connector-curvature="0" />
</svg>
