<?xml version="1.0" encoding="UTF-8" standalone="no"?>
<svg
   xmlns:dc="http://purl.org/dc/elements/1.1/"
   xmlns:cc="http://creativecommons.org/ns#"
   xmlns:rdf="http://www.w3.org/1999/02/22-rdf-syntax-ns#"
   xmlns:svg="http://www.w3.org/2000/svg"
   xmlns="http://www.w3.org/2000/svg"
   xmlns:sodipodi="http://sodipodi.sourceforge.net/DTD/sodipodi-0.dtd"
   xmlns:inkscape="http://www.inkscape.org/namespaces/inkscape"
   width="90"
   height="105"
   version="1.1"
   id="svg3950"
   sodipodi:docname="developement.svg"
   inkscape:version="0.92.2 (5c3e80d, 2017-08-06)">
  <metadata
     id="metadata3954">
    <rdf:RDF>
      <cc:Work
         rdf:about="">
        <dc:format>image/svg+xml</dc:format>
        <dc:type
           rdf:resource="http://purl.org/dc/dcmitype/StillImage" />
        <dc:title></dc:title>
      </cc:Work>
    </rdf:RDF>
  </metadata>
  <sodipodi:namedview
     pagecolor="#ffffff"
     bordercolor="#666666"
     borderopacity="1"
     objecttolerance="10"
     gridtolerance="10"
     guidetolerance="10"
     inkscape:pageopacity="0"
     inkscape:pageshadow="2"
     inkscape:window-width="2560"
     inkscape:window-height="1440"
     id="namedview3952"
     showgrid="false"
     units="px"
     inkscape:zoom="9.7179828"
     inkscape:cx="29.272525"
     inkscape:cy="35.161069"
     inkscape:window-x="0"
     inkscape:window-y="0"
     inkscape:window-maximized="0"
     inkscape:current-layer="svg3950" />
  <defs
     id="defs3946">
    <linearGradient
       id="a"
       x1="1.0596243"
       x2="1.0596243"
       y1="95.56356"
       y2="0.81440938"
       gradientTransform="matrix(0.92863101,0,0,1.076854,0.0224985,0.6075)"
       gradientUnits="userSpaceOnUse">
      <stop
         offset="0%"
         stop-color="#1982E6"
         id="stop3941" />
      <stop
         offset="100%"
         stop-color="#52C4F6"
         id="stop3943" />
    </linearGradient>
  </defs>
  <path
     d="M 45.000498,103.5155 1.0064985,78.0065 V 26.9915 L 45.000498,1.4845 88.993502,26.9915 v 51.015 z m 39.828,-74.108 L 45.000498,6.3155003 5.1714985,29.4075 v 46.184 l 39.8289995,23.093 39.828,-23.093 z m -48.051999,42.363 v -1.377 c 0,-0.759 0.615,-1.376 1.369999,-1.376 h 2.865001 l 1.097,-5.506 h -14.241 a 3.438,3.438 0 0 1 -3.427,-3.441 v -24.777 a 3.437,3.437 0 0 1 3.427,-3.44 h 34.265 a 3.437,3.437 0 0 1 3.427,3.44 v 34.412 a 3.438,3.438 0 0 1 -3.426,3.441 h -23.987 c -0.755,0 -1.37,-0.618 -1.37,-1.376 z m -10.965,-11.7 c 0,1.138 0.923,2.065 2.056,2.065 h 18.503 v -1.377 h -3.426 a 0.686,0.686 0 0 1 -0.685001,-0.688 c 0,-0.381 0.306,-0.688 0.685001,-0.688 h 3.426 v -1.377 h -20.559 z m 16.598,8.947 h 3.961 v -5.506 h -2.865 z m 3.961,-12.389 v -20.646 h -17.133 a 0.687,0.687 0 0 0 -0.685,0.688 v 19.958 z m -18.503,-23.399 a 2.063,2.063 0 0 0 -2.056,2.064 v 21.335 h 1.371 v -19.958 c 0,-1.139 0.922,-2.065 2.055,-2.065 h 17.202 c 0.103,-0.508 0.319,-0.976 0.618,-1.376 z m 19.873999,36.476 c 0,1.138 0.922,2.065 2.056,2.065 h 12.335001 a 2.063,2.063 0 0 0 2.056,-2.065 v -2.065 H 47.741498 Z m 0,-3.442 H 64.188499 V 38.7355 H 47.741498 Z m 0,-28.905 h 16.447001 v -2.065 a 2.062,2.062 0 0 0 -2.056,-2.064 H 49.797498 a 2.062,2.062 0 0 0 -2.056,2.064 z m -1.302,33.035 h -8.293 v 1.377 h 8.911 a 3.452,3.452 0 0 1 -0.618,-1.377 z M 62.132499,49.7465 H 49.797498 a 0.687,0.687 0 0 1 -0.686,-0.688 v -2.753 c 0,-0.38 0.307,-0.688 0.686,-0.688 h 12.335001 c 0.379999,0 0.686,0.308 0.686,0.688 v 2.753 c 0,0.38 -0.306,0.688 -0.686,0.688 z m -0.685,-2.753 H 50.482498 v 1.377 h 10.965001 z m 0.685,-2.753 H 49.797498 a 0.687,0.687 0 0 1 -0.686,-0.687 v -2.754 c 0,-0.379 0.307,-0.688 0.686,-0.688 h 12.335001 c 0.379999,0 0.686,0.309 0.686,0.688 v 2.754 a 0.686,0.686 0 0 1 -0.686,0.687 z m -0.685,-2.752 H 50.482498 v 1.376 h 10.965001 z m -11.650001,13.076 h 2.741 c 0.379,0 0.685,0.308 0.685,0.689 v 5.505 a 0.687,0.687 0 0 1 -0.685,0.688 h -2.741 a 0.687,0.687 0 0 1 -0.685,-0.688 v -5.505 c 0,-0.381 0.306,-0.689 0.685,-0.689 z m 0.685,5.506 h 1.371 v -4.13 h -1.371 z m 7.539,-0.688 c 0.379001,0 0.685001,0.307 0.685001,0.688 a 0.686,0.686 0 1 1 -1.371,0 c 0,-0.381 0.307,-0.688 0.685999,-0.688 z m 3.426001,0 c 0.379,0 0.685,0.307 0.685,0.688 a 0.686,0.686 0 1 1 -1.370001,0 c 0,-0.381 0.306,-0.688 0.685001,-0.688 z m -27.436,-15.319 -1.993001,1.464 2.023001,1.643 -0.803,0.986 -3.302,-2.688 3.331,-2.419 z m 5.026,-2.448 -2.885,8.423 -1.189,-0.419 2.884,-8.423 z m 0.863,2.448 0.743,-1.014 3.331,2.419 -3.331,2.688 -0.773,-0.986 2.023,-1.643 z"
     id="path3948"
     style="fill:url(#a);fill-rule:evenodd"
     inkscape:connector-curvature="0" />
</svg>
