<?xml version="1.0" encoding="UTF-8" standalone="no"?>
<svg
   xmlns:dc="http://purl.org/dc/elements/1.1/"
   xmlns:cc="http://creativecommons.org/ns#"
   xmlns:rdf="http://www.w3.org/1999/02/22-rdf-syntax-ns#"
   xmlns:svg="http://www.w3.org/2000/svg"
   xmlns="http://www.w3.org/2000/svg"
   xmlns:sodipodi="http://sodipodi.sourceforge.net/DTD/sodipodi-0.dtd"
   xmlns:inkscape="http://www.inkscape.org/namespaces/inkscape"
   width="90"
   height="105"
   version="1.1"
   id="svg3863"
   sodipodi:docname="engineering.svg"
   inkscape:version="0.92.2 (5c3e80d, 2017-08-06)">
  <metadata
     id="metadata3867">
    <rdf:RDF>
      <cc:Work
         rdf:about="">
        <dc:format>image/svg+xml</dc:format>
        <dc:type
           rdf:resource="http://purl.org/dc/dcmitype/StillImage" />
        <dc:title></dc:title>
      </cc:Work>
    </rdf:RDF>
  </metadata>
  <sodipodi:namedview
     pagecolor="#ffffff"
     bordercolor="#666666"
     borderopacity="1"
     objecttolerance="10"
     gridtolerance="10"
     guidetolerance="10"
     inkscape:pageopacity="0"
     inkscape:pageshadow="2"
     inkscape:window-width="2560"
     inkscape:window-height="1440"
     id="namedview3865"
     showgrid="false"
     width="90in"
     units="px"
     inkscape:zoom="9.8139963"
     inkscape:cx="86.518125"
     inkscape:cy="40.685561"
     inkscape:window-x="0"
     inkscape:window-y="0"
     inkscape:window-maximized="0"
     inkscape:current-layer="svg3863" />
  <defs
     id="defs3859">
    <linearGradient
       id="a"
       x1="1.0282111"
       x2="1.0282111"
       y1="95.658043"
       y2="0.83247012"
       gradientTransform="matrix(0.93852322,0,0,1.0655037,-0.463,1.0945)"
       gradientUnits="userSpaceOnUse">
      <stop
         offset="0%"
         stop-color="#F25407"
         id="stop3854" />
      <stop
         offset="100%"
         stop-color="#FD7938"
         id="stop3856" />
    </linearGradient>
  </defs>
  <path
     d="M 45,103.0185 0.502,77.7595 V 27.2405 L 45,1.9815 89.498,27.2405 v 50.519 z M 85.285,29.6325 45,6.7645 4.715,29.6325 v 45.735 L 45,98.2355 85.285,75.3675 Z m -40.92,55.028 v -0.581 c 0,-0.32 0.264,-0.58 0.59,-0.58 0.326,0 0.591,0.26 0.591,0.58 v 0.581 a 0.586,0.586 0 0 1 -0.591,0.581 0.585,0.585 0 0 1 -0.59,-0.581 z m 2.953,-11.614 c 0.326,0 0.59,0.26 0.59,0.581 v 3.484 a 0.585,0.585 0 0 1 -0.59,0.581 0.586,0.586 0 0 1 -0.591,-0.581 v -3.484 c 0,-0.321 0.264,-0.581 0.591,-0.581 z m 0,5.807 c 0.326,0 0.59,0.26 0.59,0.581 v 1.161 a 0.585,0.585 0 0 1 -0.59,0.581 0.586,0.586 0 0 1 -0.591,-0.581 v -1.161 c 0,-0.321 0.264,-0.581 0.591,-0.581 z m 0,3.484 c 0.326,0 0.59,0.26 0.59,0.581 v 0.581 c 0,0.32 -0.264,0.58 -0.59,0.58 a 0.585,0.585 0 0 1 -0.591,-0.58 v -0.581 c 0,-0.321 0.264,-0.581 0.591,-0.581 z m -7.5,-15.063 a 5.02,5.02 0 0 1 1.036,-3.054 v -4.078 h -5.602 l -5.924,10.677 a 1.047,1.047 0 0 1 -1.406,0.407 1.01,1.01 0 0 1 -0.414,-1.383 l 5.382,-9.701 h -1.363 c -1.714,0 -3.109,-1.372 -3.109,-3.057 h -2.072 c -0.001,1.686 -1.396,3.056 -3.11,3.056 -1.714,0 -3.109,-1.37 -3.109,-3.057 v -8.151 c 0,-1.328 0.867,-2.461 2.073,-2.882 v -7.307 h -2.073 v -0.001 h -5.182 a 1.028,1.028 0 0 1 -1.036,-1.018 c 0,-0.563 0.465,-1.019 1.036,-1.019 h 5.182 v -1.751 c 0,-1.282 1.06,-2.325 2.364,-2.324 h 1.49 c 1.304,0 2.365,1.042 2.365,2.324 v 1.751 h 5.181 c 0.572,0 1.036,0.456 1.036,1.019 0,0.563 -0.464,1.018 -1.036,1.018 h -5.181 v 0.001 h -2.074 v 7.307 c 1.207,0.421 2.074,1.554 2.074,2.882 h 2.072 c 0,-1.685 1.395,-3.056 3.109,-3.056 h 8.291 v -2.038 c 0,-2.809 2.325,-5.095 5.182,-5.095 2.857,0 5.182,2.286 5.182,5.095 v 2.038 h 8.29 c 1.715,0 3.11,1.371 3.11,3.056 v 10e-4 h 2.072 v -10e-4 c 0,-1.328 0.867,-2.461 2.073,-2.882 v -7.307 h -7.255 a 1.028,1.028 0 0 1 -1.036,-1.019 c 0,-0.563 0.464,-1.019 1.036,-1.019 h 5.182 v -1.751 c 0,-1.282 1.06,-2.325 2.364,-2.325 h 1.49 c 1.304,0 2.364,1.043 2.364,2.325 v 1.751 h 5.182 c 0.572,0 1.036,0.456 1.036,1.019 0,0.563 -0.464,1.019 -1.036,1.019 h -7.255 v 7.307 c 1.207,0.421 2.073,1.554 2.073,2.882 v 8.151 c 0,1.687 -1.395,3.057 -3.109,3.057 -1.714,0 -3.108,-1.37 -3.109,-3.056 h -2.072 c -10e-4,1.685 -1.395,3.057 -3.109,3.057 H 57.11 l 5.382,9.701 a 1.012,1.012 0 0 1 -0.414,1.383 1.053,1.053 0 0 1 -0.495,0.124 c -0.367,0 -0.723,-0.191 -0.911,-0.531 l -5.924,-10.677 h -5.603 v 4.078 a 5.014,5.014 0 0 1 1.037,3.054 c 0,2.809 -2.325,5.095 -5.182,5.095 -2.857,0 -5.182,-2.286 -5.182,-5.095 z M 24.273,36.7065 v -1.751 a 0.288,0.288 0 0 0 -0.291,-0.286 h -1.491 a 0.288,0.288 0 0 0 -0.291,0.286 v 1.751 z m -0.001,12.227 a 1.03,1.03 0 0 0 -1.036,-1.019 1.03,1.03 0 0 0 -1.036,1.019 v 8.151 c 0,0.563 0.465,1.02 1.036,1.02 a 1.03,1.03 0 0 0 1.036,-1.02 z m 4.146,2.038 h -2.072 v 4.076 h 2.072 z m 39.381,-16.016 a 0.287,0.287 0 0 0 -0.29,-0.286 h -1.491 a 0.288,0.288 0 0 0 -0.291,0.286 v 1.751 h 2.072 z m -2.072,13.979 v 8.15 c 0,0.563 0.465,1.02 1.036,1.02 a 1.03,1.03 0 0 0 1.036,-1.02 v -8.151 a 1.03,1.03 0 0 0 -1.036,-1.019 1.03,1.03 0 0 0 -1.036,1.019 z m -4.145,6.113 h 2.072 v -4.075 H 61.582 Z M 48.109,43.8395 c 0,-1.686 -1.395,-3.057 -3.109,-3.057 -1.714,0 -3.109,1.371 -3.109,3.057 v 2.038 h 6.218 z m 2.073,4.075 h -10.76 l 1.036,2.039 h 9.083 l 1.036,-2.039 z m 8.29,10.19 c 0.571,0 1.037,-0.458 1.036,-1.019 v -8.152 a 1.03,1.03 0 0 0 -1.036,-1.019 h -5.578 l -1.786,3.513 a 1.037,1.037 0 0 1 -0.926,0.563 H 39.818 c -0.393,0 -0.751,-0.218 -0.927,-0.563 l -1.787,-3.513 h -5.577 a 1.03,1.03 0 0 0 -1.036,1.019 v 8.152 a 1.03,1.03 0 0 0 1.036,1.019 z m -15.545,2.038 v 2.464 A 5.22,5.22 0 0 1 45,62.1805 c 0.737,0 1.437,0.152 2.072,0.426 v -2.464 z m 5.182,7.132 c 0,-0.715 -0.252,-1.373 -0.672,-1.895 A 1.007,1.007 0 0 1 47.238,65.1565 3.125,3.125 0 0 0 45,64.2175 c -0.879,0 -1.673,0.361 -2.239,0.939 a 0.978,0.978 0 0 1 -0.198,0.223 3.013,3.013 0 0 0 -0.672,1.895 c 0,1.685 1.395,3.057 3.109,3.057 1.714,0 3.109,-1.372 3.109,-3.057 z M 37.745,54.0285 h 14.509 a 1.03,1.03 0 0 1 1.037,1.019 c 0,0.562 -0.465,1.018 -1.037,1.018 H 37.745 a 1.027,1.027 0 0 1 -1.036,-1.018 c 0,-0.562 0.464,-1.019 1.036,-1.019 z m 33.198,-14.372 c 0.326,0 0.59,0.26 0.59,0.581 v 3.484 a 0.585,0.585 0 0 1 -0.59,0.581 0.586,0.586 0 0 1 -0.591,-0.581 v -3.484 c 0,-0.321 0.265,-0.581 0.591,-0.581 z m 0,5.807 c 0.326,0 0.59,0.26 0.59,0.581 v 1.161 c 0,0.32 -0.264,0.581 -0.59,0.581 a 0.587,0.587 0 0 1 -0.591,-0.581 v -1.161 c 0,-0.321 0.265,-0.581 0.591,-0.581 z m 0,3.484 c 0.326,0 0.59,0.26 0.59,0.581 v 0.58 a 0.585,0.585 0 0 1 -0.59,0.581 0.586,0.586 0 0 1 -0.591,-0.581 v -0.58 c 0,-0.321 0.265,-0.581 0.591,-0.581 z m 2.363,-8.13 c 0.326,0 0.59,0.26 0.59,0.581 v 3.485 c 0,0.32 -0.264,0.58 -0.59,0.58 a 0.586,0.586 0 0 1 -0.591,-0.58 v -3.485 c 0,-0.321 0.265,-0.581 0.591,-0.581 z m 0,5.807 c 0.326,0 0.59,0.26 0.59,0.581 v 1.162 c 0,0.32 -0.264,0.58 -0.59,0.58 a 0.586,0.586 0 0 1 -0.591,-0.58 v -1.162 c 0,-0.321 0.265,-0.581 0.591,-0.581 z m 0,3.484 c 0.326,0 0.59,0.26 0.59,0.581 v 0.58 a 0.585,0.585 0 0 1 -0.59,0.581 0.586,0.586 0 0 1 -0.591,-0.581 v -0.58 c 0,-0.321 0.265,-0.581 0.591,-0.581 z m 2.362,-10.452 c 0.326,0 0.591,0.26 0.591,0.581 v 3.484 a 0.586,0.586 0 0 1 -0.591,0.581 0.585,0.585 0 0 1 -0.59,-0.581 v -3.484 c 0,-0.321 0.264,-0.581 0.59,-0.581 z m 0,5.807 c 0.326,0 0.591,0.26 0.591,0.581 v 1.161 c 0,0.32 -0.265,0.581 -0.591,0.581 a 0.586,0.586 0 0 1 -0.59,-0.581 v -1.161 c 0,-0.321 0.264,-0.581 0.59,-0.581 z m 0,3.484 c 0.326,0 0.591,0.26 0.591,0.581 v 0.58 a 0.586,0.586 0 0 1 -0.591,0.581 0.585,0.585 0 0 1 -0.59,-0.581 v -0.58 c 0,-0.321 0.264,-0.581 0.59,-0.581 z m -61.13,-8.13 v 3.485 c 0,0.32 -0.265,0.581 -0.591,0.581 a 0.586,0.586 0 0 1 -0.59,-0.581 v -3.485 c 0,-0.32 0.264,-0.58 0.59,-0.58 0.326,0 0.591,0.26 0.591,0.58 z m -0.591,5.227 c 0.326,0 0.591,0.259 0.591,0.58 v 1.162 c 0,0.32 -0.265,0.581 -0.591,0.581 a 0.586,0.586 0 0 1 -0.59,-0.581 v -1.162 c 0,-0.321 0.264,-0.58 0.59,-0.58 z m 0,3.484 c 0.326,0 0.591,0.26 0.591,0.58 v 0.581 c 0,0.321 -0.265,0.58 -0.591,0.58 a 0.585,0.585 0 0 1 -0.59,-0.58 v -0.581 c 0,-0.32 0.264,-0.58 0.59,-0.58 z m 2.363,-8.13 c 0.326,0 0.59,0.26 0.59,0.581 v 3.484 a 0.585,0.585 0 0 1 -0.59,0.581 0.586,0.586 0 0 1 -0.591,-0.581 v -3.484 c 0,-0.321 0.264,-0.581 0.591,-0.581 z m 0,5.807 c 0.326,0 0.59,0.26 0.59,0.581 v 1.161 a 0.585,0.585 0 0 1 -0.59,0.581 0.586,0.586 0 0 1 -0.591,-0.581 v -1.161 c 0,-0.321 0.264,-0.581 0.591,-0.581 z m 0,3.484 c 0.326,0 0.59,0.26 0.59,0.58 v 0.581 a 0.585,0.585 0 0 1 -0.59,0.581 0.585,0.585 0 0 1 -0.591,-0.581 v -0.581 c 0,-0.32 0.264,-0.58 0.591,-0.58 z m 2.362,-10.452 c 0.326,0 0.591,0.26 0.591,0.58 v 3.485 c 0,0.32 -0.265,0.581 -0.591,0.581 a 0.586,0.586 0 0 1 -0.59,-0.581 v -3.485 c 0,-0.32 0.264,-0.58 0.59,-0.58 z m 0,5.807 c 0.326,0 0.591,0.259 0.591,0.58 v 1.162 c 0,0.32 -0.265,0.581 -0.591,0.581 a 0.586,0.586 0 0 1 -0.59,-0.581 v -1.162 c 0,-0.321 0.264,-0.58 0.59,-0.58 z m 0,3.484 c 0.326,0 0.591,0.26 0.591,0.58 v 0.581 c 0,0.321 -0.265,0.58 -0.591,0.58 a 0.585,0.585 0 0 1 -0.59,-0.58 v -0.581 c 0,-0.32 0.264,-0.58 0.59,-0.58 z m 23.921,23.518 c 0.326,0 0.59,0.26 0.59,0.581 v 3.484 a 0.585,0.585 0 0 1 -0.59,0.581 0.586,0.586 0 0 1 -0.591,-0.581 v -3.484 c 0,-0.321 0.265,-0.581 0.591,-0.581 z m 0,5.807 c 0.326,0 0.59,0.26 0.59,0.581 v 1.161 a 0.585,0.585 0 0 1 -0.59,0.581 0.586,0.586 0 0 1 -0.591,-0.581 v -1.161 c 0,-0.321 0.265,-0.581 0.591,-0.581 z m 0,3.484 c 0.326,0 0.59,0.26 0.59,0.581 v 0.581 c 0,0.32 -0.264,0.58 -0.59,0.58 a 0.586,0.586 0 0 1 -0.591,-0.58 v -0.581 c 0,-0.321 0.265,-0.581 0.591,-0.581 z m 2.362,-8.129 c 0.326,0 0.591,0.26 0.591,0.58 v 3.485 c 0,0.321 -0.265,0.58 -0.591,0.58 a 0.585,0.585 0 0 1 -0.59,-0.58 v -3.485 c 0,-0.32 0.264,-0.58 0.59,-0.58 z m 0,5.806 c 0.326,0 0.591,0.26 0.591,0.581 v 1.161 a 0.586,0.586 0 0 1 -0.591,0.581 0.585,0.585 0 0 1 -0.59,-0.581 v -1.161 c 0,-0.321 0.264,-0.581 0.59,-0.581 z"
     id="path3861"
     inkscape:connector-curvature="0"
     style="fill:url(#a);fill-rule:evenodd" />
</svg>
